<?xml version="1.0" encoding="iso-8859-1"?>
<!-- Generator: Adobe Illustrator 19.0.0, SVG Export Plug-In . SVG Version: 6.00 Build 0)  -->
<svg version="1.1" id="Capa_1" xmlns="http://www.w3.org/2000/svg" xmlns:xlink="http://www.w3.org/1999/xlink" x="0px" y="0px"
	 viewBox="0 0 512.001 512.001" style="enable-background:new 0 0 512.001 512.001;" xml:space="preserve">
<g>
	<rect x="167.009" y="462" style="fill:#72D8FF;" width="178.05" height="40"/>
	<path style="fill:#72D8FF;" d="M433,94.999H79c-17.673,0-32,14.327-32,32v249.002c0,17.673,14.327,32,32,32h354
		c17.673,0,32-14.327,32-32V126.999C465,109.326,450.673,94.999,433,94.999z"/>
</g>
<path style="fill:#EDF2FA;" d="M433,94.999H79c-17.673,0-32,14.327-32,32v223h418v-223C465,109.326,450.673,94.999,433,94.999z"/>
<polygon style="fill:#D8FB93;" points="134.048,125.863 171.024,160.834 171.024,217.815 134.048,182.844 "/>
<polygon style="fill:#A0E557;" points="208,125.863 171.024,160.834 171.024,217.815 208,182.844 "/>
<path style="fill:#FF5D5D;" d="M171.018,349.999L171.018,349.999c-19.882,0-36-16.118-36-36v-60c0-19.882,16.118-36,36-36l0,0
	c19.882,0,36,16.118,36,36v60C207.018,333.881,190.9,349.999,171.018,349.999z"/>
<rect x="135.019" y="256.09" style="fill:#C9F3FF;" width="72" height="54"/>
<rect x="216.039" y="408" style="fill:#EDF2FA;" width="80" height="53.996"/>
<polygon style="fill:#D8FB93;" points="323.03,10.001 360.006,44.972 360.006,101.953 323.03,66.982 "/>
<polygon style="fill:#A0E557;" points="396.981,10.001 360.006,44.972 360.006,101.953 396.981,66.982 "/>
<path style="fill:#FF5D5D;" d="M360,234.137L360,234.137c-19.882,0-36-16.118-36-36v-60c0-19.882,16.118-36,36-36l0,0
	c19.882,0,36,16.118,36,36v60C396,218.019,379.882,234.137,360,234.137z"/>
<rect x="323.999" y="140.23" style="fill:#C9F3FF;" width="72" height="54"/>
<path d="M339.947,96.745C324.602,104.209,314,119.957,314,138.136v60c0,25.364,20.636,46,46,46s46-20.636,46-46v-60
	c0-18.176-10.599-33.921-25.939-41.387l23.792-22.502c1.997-1.889,3.128-4.517,3.128-7.266v-56.98c0-3.994-2.376-7.604-6.045-9.185
	c-3.668-1.581-7.925-0.826-10.827,1.919l-30.104,28.472L329.902,2.735c-2.902-2.744-7.16-3.5-10.827-1.919
	c-3.668,1.58-6.045,5.19-6.045,9.185v56.98c0,2.749,1.131,5.377,3.128,7.266L339.947,96.745z M334,184.231v-34h52v34H334z
	 M335.232,130.231c3.354-10.482,13.187-18.094,24.767-18.094s21.413,7.612,24.767,18.094H335.232z M360,224.137
	c-12.238,0-22.521-8.501-25.272-19.906h50.543C382.521,215.636,372.237,224.137,360,224.137z M386.981,62.675l-16.976,16.056V49.278
	l16.976-16.056V62.675z M333.03,33.223l16.976,16.056v29.452L333.03,62.675V33.223z"/>
<path d="M220.999,104.999h70.5c5.523,0,10-4.478,10-10s-4.477-10-10-10h-70.5c-5.523,0-10,4.478-10,10
	S215.476,104.999,220.999,104.999z"/>
<path d="M433,84.999h-25c-5.523,0-10,4.478-10,10s4.477,10,10,10h25c12.131,0,22,9.869,22,22v213.046
	c-0.302-0.027-0.606-0.046-0.915-0.046H208.938c5.091-7.402,8.08-16.357,8.08-26v-60c0-18.176-10.599-33.921-25.939-41.387
	l23.792-22.502c1.997-1.889,3.128-4.517,3.128-7.266v-56.98c0-3.994-2.376-7.604-6.045-9.185s-7.925-0.825-10.827,1.919
	l-30.104,28.472l-30.104-28.472c-2.902-2.744-7.16-3.5-10.827-1.919c-3.668,1.58-6.045,5.19-6.045,9.185v56.98
	c0,2.749,1.131,5.377,3.128,7.266l23.788,22.498c-15.345,7.464-25.947,23.212-25.947,41.391v60c0,9.643,2.988,18.598,8.08,26H57V127
	c0-12.131,9.869-22,22-22h45c5.523,0,10-4.478,10-10s-4.477-10-10-10H79c-23.159,0-42,18.841-42,42v249.002
	c0,23.159,18.841,42,42,42h127.037v33.996h-39.024c-5.523,0-10,4.478-10,10v40.004c0,5.522,4.477,10,10,10h178.049
	c5.523,0,10-4.478,10-10v-40.004c0-5.522-4.477-10-10-10h-39.024v-33.996h126.963c23.159,0,42-18.841,42-42V126.999
	C475,103.84,456.158,84.999,433,84.999z M145.018,266.093h52v34h-52V266.093z M171.018,227.999c11.58,0,21.413,7.612,24.767,18.094
	h-49.534C149.605,235.611,159.437,227.999,171.018,227.999z M198,178.537l-16.976,16.056v-29.452L198,149.085V178.537z
	 M144.048,149.085l16.976,16.056v29.452l-16.976-16.056V149.085z M145.746,320.093h50.543c-2.75,11.405-13.034,19.906-25.272,19.906
	S148.496,331.498,145.746,320.093z M335.061,492.001H177.012v-20.004h158.049V492.001z M286.036,451.997h-60v-33.996h60V451.997z
	 M433,398.001H79c-12.131,0-22-9.869-22-22v-16.002h397.085c0.309,0,0.613-0.019,0.915-0.046v16.048
	C455,388.132,445.13,398.001,433,398.001z"/>
<path d="M293,147.001c0-5.522-4.477-10-10-10s-10,4.478-10,10v47.229c0,5.522,4.477,10,10,10s10-4.478,10-10V147.001z"/>
<path d="M290.069,221.931c-1.86-1.86-4.44-2.93-7.07-2.93s-5.21,1.069-7.07,2.93c-1.86,1.86-2.93,4.44-2.93,7.07
	s1.07,5.21,2.93,7.069c1.86,1.86,4.44,2.931,7.07,2.931s5.21-1.07,7.07-2.931c1.86-1.859,2.93-4.439,2.93-7.069
	S291.929,223.791,290.069,221.931z"/>
<path d="M290.069,259.931c-1.86-1.86-4.44-2.93-7.07-2.93s-5.21,1.069-7.07,2.93c-1.86,1.86-2.93,4.44-2.93,7.07
	s1.07,5.21,2.93,7.069c1.86,1.86,4.44,2.931,7.07,2.931s5.21-1.07,7.07-2.931c1.86-1.859,2.93-4.439,2.93-7.069
	S291.929,261.791,290.069,259.931z"/>
<path d="M283,295.001c-2.63,0-5.21,1.069-7.07,2.93c-1.86,1.86-2.93,4.44-2.93,7.07s1.07,5.21,2.93,7.069
	c1.86,1.86,4.44,2.931,7.07,2.931s5.21-1.07,7.07-2.931c1.86-1.859,2.93-4.439,2.93-7.069s-1.07-5.21-2.93-7.07
	S285.629,295.001,283,295.001z"/>
<path d="M171.02,20.001c2.63,0,5.21-1.07,7.07-2.931c1.86-1.859,2.93-4.439,2.93-7.069s-1.07-5.21-2.93-7.07s-4.44-2.93-7.07-2.93
	s-5.21,1.069-7.07,2.93c-1.86,1.86-2.93,4.44-2.93,7.07s1.07,5.21,2.93,7.069C165.81,18.931,168.389,20.001,171.02,20.001z"/>
<path d="M171.02,62.501c2.63,0,5.21-1.07,7.07-2.931c1.86-1.859,2.93-4.439,2.93-7.069s-1.07-5.21-2.93-7.07s-4.44-2.93-7.07-2.93
	s-5.21,1.069-7.07,2.93c-1.86,1.86-2.93,4.43-2.93,7.07c0,2.63,1.07,5.21,2.93,7.069C165.81,61.431,168.389,62.501,171.02,62.501z"
	/>
<path d="M171.02,105.001c2.63,0,5.21-1.07,7.07-2.931c1.86-1.859,2.93-4.439,2.93-7.069c0-2.641-1.07-5.21-2.93-7.07
	s-4.44-2.93-7.07-2.93c-2.64,0-5.21,1.069-7.07,2.93c-1.86,1.86-2.93,4.43-2.93,7.07c0,2.63,1.07,5.21,2.93,7.069
	C165.81,103.931,168.389,105.001,171.02,105.001z"/>
<g>
</g>
<g>
</g>
<g>
</g>
<g>
</g>
<g>
</g>
<g>
</g>
<g>
</g>
<g>
</g>
<g>
</g>
<g>
</g>
<g>
</g>
<g>
</g>
<g>
</g>
<g>
</g>
<g>
</g>
</svg>
